DBRep_DrawableShape

CASCADE Topology V3, (c) Open Cascade
Locations 0
Curve2ds 32
1 0 1.5707963267948966 1 0 
1 6.2831853071795862 -6.2831853071795862 0 1 
1 0 -6.2831853071795862 0 1 
1 0 -1.5707963267948966 1 0 
1 0 0 1 0 
1 0 0 1 0 
1 0.33000000000000002 0 0 -1 
1 0 0 0 1 
1 0 -0.29999999999999999 1 0 
1 0 0 1 0 
1 0 0 0 -1 
1 0 0 0 1 
1 0 0 0 1 
1 0 0 1 0 
1 0 0 1 0 
1 0 0.37 1 0 
1 0.33000000000000002 0 0 1 
1 0 0 1 0 
1 0.33000000000000002 0 0 1 
1 0 0.29999999999999999 1 0 
1 0.33000000000000002 0 0 -1 
1 0.37 0 0 1 
1 0 0 0 1 
1 0 0.29999999999999999 1 0 
1 0 -0.29999999999999999 1 0 
1 0 0.37 1 0 
1 0 0 0 -1 
1 0.37 0 0 1 
1 0 1.5707963267948966 1 0 
1 6.2831853071795862 -6.2831853071795862 0 1 
1 0 -6.2831853071795862 0 1 
1 0 -1.5707963267948966 1 0 
Curves 14
2 0 0 0 -2.4492127076447545e-16 -1 0 1 -2.4492127076447545e-16 0 0 0 1 0.34000000000000002
1 -0.185 -0.14999999999999999 -0.16500000000000001 0 0 1 
1 -0.185 -0.14999999999999999 0.16500000000000001 -0 1 0 
1 -0.185 0.14999999999999999 -0.16500000000000001 0 0 1 
1 -0.185 -0.14999999999999999 -0.16500000000000001 -0 1 0 
1 -0.185 -0.14999999999999999 -0.16500000000000001 1 0 -0 
1 0.185 -0.14999999999999999 -0.16500000000000001 0 0 1 
1 -0.185 -0.14999999999999999 0.16500000000000001 1 0 -0 
1 -0.185 0.14999999999999999 0.16500000000000001 1 0 -0 
1 0.185 -0.14999999999999999 0.16500000000000001 -0 1 0 
1 -0.185 0.14999999999999999 -0.16500000000000001 1 0 -0 
1 0.185 0.14999999999999999 -0.16500000000000001 0 0 1 
1 0.185 -0.14999999999999999 -0.16500000000000001 -0 1 0 
2 0 0 0 -2.4492127076447545e-16 -1 0 1 -2.4492127076447545e-16 0 0 0 1 0.56859999999999999
Polygon3D 0
PolygonOnTriangulations 0
Surfaces 8
4 0 0 0 0 0 1 1 0 -0 -0 1 0 0.34000000000000002
1 -0.185 -0.14999999999999999 -0.16500000000000001 1 0 -0 0 0 1 0 -1 0 
1 -0.185 -0.14999999999999999 -0.16500000000000001 -0 1 0 0 0 1 1 0 -0 
1 -0.185 -0.14999999999999999 0.16500000000000001 0 0 1 1 0 -0 -0 1 0 
1 -0.185 0.14999999999999999 -0.16500000000000001 -0 1 0 0 0 1 1 0 -0 
1 -0.185 -0.14999999999999999 -0.16500000000000001 0 0 1 1 0 -0 -0 1 0 
1 0.185 -0.14999999999999999 -0.16500000000000001 1 0 -0 0 0 1 0 -1 0 
4 0 0 0 0 0 1 1 0 -0 -0 1 0 0.56859999999999999
Triangulations 0

TShapes 53
Ve
1e-07
2.08183080149804e-17 -5.09884645419527e-33 0.34
0 0

0101101
*
Ed
 1e-07 1 1 1
2  1 1 0 0 6.28318530717959
0

0101000
+53 0 -53 0 *
Ve
1e-07
2.08183080149804e-17 -5.09884645419527e-33 -0.34
0 0

0101101
*
Ed
 1e-07 1 1 0
1  1 0 4.71238898038469 7.85398163397448
3  2 3CN 1 0 4.71238898038469 7.85398163397448
0

0101000
-53 0 +51 0 *
Ed
 1e-07 1 1 1
2  4 1 0 0 6.28318530717959
0

0101000
+51 0 -51 0 *
Wi

0101100
-52 0 +50 0 +49 0 -50 0 *
Fa
0  1e-07 1 0

0111000
+48 0 *
Sh

0101100
+47 0 *
Ve
1e-07
-0.185 -0.15 0.165
0 0

0101101
*
Ve
1e-07
-0.185 -0.15 -0.165
0 0

0101101
*
Ed
 1e-07 1 1 0
1  2 0 0 0.33
2  5 2 0 0 0.33
2  6 3 0 0 0.33
0

0101000
-45 0 +44 0 *
Ve
1e-07
-0.185 0.15 0.165
0 0

0101101
*
Ed
 1e-07 1 1 0
1  3 0 0 0.3
2  7 2 0 0 0.3
2  8 4 0 0 0.3
0

0101000
-42 0 +45 0 *
Ve
1e-07
-0.185 0.15 -0.165
0 0

0101101
*
Ed
 1e-07 1 1 0
1  4 0 0 0.33
2  9 2 0 0 0.33
2  10 5 0 0 0.33
0

0101000
-42 0 +40 0 *
Ed
 1e-07 1 1 0
1  5 0 0 0.3
2  11 2 0 0 0.3
2  12 6 0 0 0.3
0

0101000
-40 0 +44 0 *
Wi

0101100
-43 0 -41 0 +39 0 +38 0 *
Fa
0  1e-07 2 0

0111000
+37 0 *
Ve
1e-07
0.185 -0.15 -0.165
0 0

0101101
*
Ed
 1e-07 1 1 0
1  6 0 0 0.37
2  13 3 0 0 0.37
2  14 6 0 0 0.37
0

0101000
-35 0 +44 0 *
Ve
1e-07
0.185 -0.15 0.165
0 0

0101101
*
Ed
 1e-07 1 1 0
1  7 0 0 0.33
2  15 7 0 0 0.33
2  16 3 0 0 0.33
0

0101000
-33 0 +35 0 *
Ed
 1e-07 1 1 0
1  8 0 0 0.37
2  17 3 0 0 0.37
2  18 4 0 0 0.37
0

0101000
-33 0 +45 0 *
Wi

0101100
-34 0 -32 0 +31 0 +43 0 *
Fa
0  1e-07 3 0

0111000
+30 0 *
Ve
1e-07
0.185 0.15 0.165
0 0

0101101
*
Ed
 1e-07 1 1 0
1  9 0 0 0.37
2  19 5 0 0 0.37
2  20 4 0 0 0.37
0

0101000
-28 0 +42 0 *
Ed
 1e-07 1 1 0
1  10 0 0 0.3
2  21 7 0 0 0.3
2  22 4 0 0 0.3
0

0101000
-28 0 +33 0 *
Wi

0101100
-41 0 -27 0 +26 0 +31 0 *
Fa
0  1e-07 4 0

0111000
+25 0 *
Ve
1e-07
0.185 0.15 -0.165
0 0

0101101
*
Ed
 1e-07 1 1 0
1  11 0 0 0.37
2  23 5 0 0 0.37
2  24 6 0 0 0.37
0

0101000
-23 0 +40 0 *
Ed
 1e-07 1 1 0
1  12 0 0 0.33
2  25 7 0 0 0.33
2  26 5 0 0 0.33
0

0101000
-28 0 +23 0 *
Wi

0101100
-22 0 -21 0 +27 0 +39 0 *
Fa
0  1e-07 5 0

0111000
+20 0 *
Ed
 1e-07 1 1 0
1  13 0 0 0.3
2  27 7 0 0 0.3
2  28 6 0 0 0.3
0

0101000
-23 0 +35 0 *
Wi

0101100
-38 0 -22 0 +18 0 +34 0 *
Fa
0  1e-07 6 0

0111000
+17 0 *
Wi

0101100
-32 0 -26 0 +21 0 +18 0 *
Fa
0  1e-07 7 0

0111000
+15 0 *
Sh

0101100
+36 0 +29 0 -24 0 -19 0 +16 0 -14 0 *
So

0100000
+46 0 +13 0 *
Ve
1e-07
3.48155586391702e-17 -8.52707086428067e-33 0.5686
0 0

0101101
*
Ed
 1e-07 1 1 1
2  29 8 0 0 6.28318530717959
0

0101000
+11 0 -11 0 *
Ve
1e-07
3.48155586391702e-17 -8.52707086428067e-33 -0.5686
0 0

0101101
*
Ed
 1e-07 1 1 0
1  14 0 4.71238898038469 7.85398163397448
3  30 31CN 8 0 4.71238898038469 7.85398163397448
0

0101000
-11 0 +9 0 *
Ed
 1e-07 1 1 1
2  32 8 0 0 6.28318530717959
0

0101000
+9 0 -9 0 *
Wi

0101100
-10 0 +8 0 +7 0 -8 0 *
Fa
0  1e-07 8 0

0111000
+6 0 *
Sh

0101100
+5 0 *
Sh

0101100
-47 0 *
So

0100000
+4 0 +3 0 *
Co

1100000
+12 0 +2 0 *

+1 0 